HIERARCHY
ROOT reference
{
	OFFSET 0.000000 0.000000 0.000000
	CHANNELS 6 Xposition Yposition Zposition Xrotation Yrotation Zrotation
	JOINT root
	{
		OFFSET 0.000000 82.904800 0.000000
		CHANNELS 3 Xrotation Yrotation Zrotation
		JOINT Hips
		{
			OFFSET 0.000000 0.000000 0.000000
			CHANNELS 3 Xrotation Yrotation Zrotation
			JOINT Spine
			{
				OFFSET -0.001284 -0.108032 0.016932
				CHANNELS 3 Xrotation Yrotation Zrotation
				JOINT Spine1
				{
					OFFSET -0.713432 17.961395 -4.618910
					CHANNELS 3 Xrotation Yrotation Zrotation
					JOINT Spine2
					{
						OFFSET -0.300453 17.939499 -4.757320
						CHANNELS 3 Xrotation Yrotation Zrotation
						JOINT Neck
						{
							OFFSET -1.988230 17.004501 -7.170800
							CHANNELS 3 Xrotation Yrotation Zrotation
							JOINT Head
							{
								OFFSET -2.006352 9.473190 -6.262899
								CHANNELS 3 Xrotation Yrotation Zrotation
								End Site
								{
									OFFSET 0.000000 0.100006 0.000000
								}
							}
						}
						JOINT RightShoulder
						{
							OFFSET 0.846154 16.403107 -9.377160
							CHANNELS 3 Xrotation Yrotation Zrotation
							JOINT RightArm
							{
								OFFSET 10.798599 -3.083588 -11.510399
								CHANNELS 3 Xrotation Yrotation Zrotation
								JOINT RightForeArm
								{
									OFFSET 4.077686 -12.812798 -26.150902
									CHANNELS 3 Xrotation Yrotation Zrotation
									JOINT RightHand
									{
										OFFSET -13.452104 1.342247 -20.943703
										CHANNELS 3 Xrotation Yrotation Zrotation
										End Site
										{
											OFFSET 0.000000 0.099998 0.000000
										}
									}
								}
							}
						}
						JOINT LeftShoulder
						{
							OFFSET -4.829940 17.595505 -4.977740
							CHANNELS 3 Xrotation Yrotation Zrotation
							JOINT LeftArm
							{
								OFFSET -11.663797 0.676697 11.050104
								CHANNELS 3 Xrotation Yrotation Zrotation
								JOINT LeftForeArm
								{
									OFFSET -4.385557 -20.378296 20.740200
									CHANNELS 3 Xrotation Yrotation Zrotation
									JOINT LeftHand
									{
										OFFSET -11.136908 -11.810501 -18.917801
										CHANNELS 3 Xrotation Yrotation Zrotation
										End Site
										{
											OFFSET 0.000000 0.099998 0.000000
										}
									}
								}
							}
						}
					}
				}
			}
			JOINT RightUpLeg
			{
				OFFSET 7.685750 -0.986786 -5.595932
				CHANNELS 3 Xrotation Yrotation Zrotation
				JOINT RightLeg
				{
					OFFSET -4.269934 -36.721001 -25.701000
					CHANNELS 3 Xrotation Yrotation Zrotation
					JOINT RightFoot
					{
						OFFSET 7.803942 -36.082699 18.240299
						CHANNELS 3 Xrotation Yrotation Zrotation
						JOINT RightToe
						{
							OFFSET -4.290442 -8.626870 -15.208797
							CHANNELS 3 Xrotation Yrotation Zrotation
							End Site
							{
								OFFSET 0.000000 0.100000 0.000000
							}
						}
					}
				}
			}
			JOINT LeftUpLeg
			{
				OFFSET -7.685750 0.986786 5.595922
				CHANNELS 3 Xrotation Yrotation Zrotation
				JOINT LeftLeg
				{
					OFFSET -26.279602 -36.001301 6.363114
					CHANNELS 3 Xrotation Yrotation Zrotation
					JOINT LeftFoot
					{
						OFFSET -14.754398 -36.139099 13.109003
						CHANNELS 3 Xrotation Yrotation Zrotation
						JOINT LeftToe
						{
							OFFSET -13.398102 -10.759700 -5.371920
							CHANNELS 3 Xrotation Yrotation Zrotation
							End Site
							{
								OFFSET 0.000000 0.100000 0.000000
							}
						}
					}
				}
			}
		}
	}
}
MOTION
Frames: 13
Frame Time: 0.041667
39.319798 0.000000 -10.152511 -0.000000 0.000000 -0.000000 1.708920 4.832218 1.326297 0.096544 0.025711 0.127969 -0.612887 0.260752 -0.224743 -0.873621 0.362814 -0.328291 -0.605157 0.211992 -0.230521 -1.791932 -2.404976 0.156187 -2.785541 -4.756948 -0.959644 -2.393443 -3.356759 -1.379621 1.206016 -6.968901 2.008790 -0.096334 -0.138923 0.052903 2.534069 -0.396367 2.216928 -2.055358 -3.961081 -1.445038 -0.547914 -0.557785 -2.160532 6.314727 -3.256970 -1.588858 1.178957 0.102558 -0.043542 -12.900946 0.177354 -10.752208 16.488152 0.598164 -4.657996 -40.642009 3.209586 -23.022473 -5.145204 -0.053427 0.423279 17.220005 4.345301 2.053625 -20.016021 11.952325 30.654480 7.893694 -8.907957 7.271838 -3.352122 -0.552988 8.182246 
46.826000 0.000000 -9.270603 -0.000000 0.000000 -0.000000 2.341685 3.644758 2.067200 0.109558 0.029393 0.145203 -0.831629 0.784465 -0.511345 -1.210587 1.057537 -0.767560 -0.853653 0.652277 -0.562001 -1.703217 -2.674455 0.266053 -2.643936 -5.264070 -0.731394 -2.866550 -3.889285 -1.711779 2.177262 -6.821913 1.713349 -0.441088 -0.638335 0.240868 2.776072 -0.354342 2.494929 -1.937205 -4.998773 -1.086758 -1.833009 -0.026974 -1.908328 6.215586 -3.204238 -1.566545 1.214552 0.508686 -0.259910 -11.893530 -1.267040 -8.612829 13.657600 0.591311 -3.849860 -33.084084 1.850464 -17.360305 -4.205431 0.083132 0.901583 17.162486 3.990645 3.347113 -19.524591 11.817248 29.953163 9.539243 -8.737326 12.540769 -11.003563 0.839410 -2.766841 
54.244801 0.000000 -8.869724 -0.000000 0.000000 -0.000000 3.462912 2.598937 3.839675 0.284653 0.075918 0.377757 -1.237847 0.595303 -1.702738 -1.808100 0.737671 -2.399032 -1.274610 0.331872 -1.644754 -1.500833 -1.983183 0.853858 -2.682440 -4.061258 0.540027 -2.439160 -2.619070 -1.603776 3.303834 -6.314927 2.079708 -0.494265 -0.715669 0.269663 2.501758 -0.152863 2.167306 -1.183706 -3.877509 -0.421975 -4.151119 0.163175 -0.169307 5.501789 -2.825921 -1.403391 0.833336 -0.116192 -0.698913 -7.549382 0.798332 -0.156700 7.362299 0.433171 -2.059498 -24.518970 0.558564 -7.344881 -1.800167 -0.598448 5.865399 16.388160 9.519142 4.413186 -13.985622 9.829424 21.943381 1.625081 -7.481540 -7.514593 -13.775668 0.753844 -23.957665 
61.272198 0.000000 -11.536617 -0.000000 0.000000 -0.000000 3.286947 2.627029 4.531470 0.411974 0.110628 0.546861 -1.328946 0.350835 -2.278215 -1.947865 0.400325 -3.182961 -1.371252 0.055460 -2.156212 -1.030155 -1.795439 0.932571 -1.929882 -3.637708 0.935354 -1.847405 -2.515944 -1.062084 3.753396 -6.107885 1.948952 -0.094010 -0.135567 0.051619 2.130330 -0.209513 1.840177 -0.829972 -3.113512 -0.174110 -4.049755 0.038636 0.763205 4.198886 -2.141898 -1.094161 0.366341 -0.671649 -1.063846 -5.134614 0.632896 4.284406 7.077051 0.421341 -1.978839 -23.205680 -1.851155 -3.569409 -1.851757 -0.072841 2.283103 16.274150 11.051565 3.245890 -12.801800 9.286721 20.200020 -1.588695 -10.172999 -24.117820 -5.427318 -1.121631 -14.923144 
67.563904 0.000000 -14.861718 -0.000000 0.000000 -0.000000 2.636349 2.859869 5.100909 0.304402 0.081344 0.403974 -1.265878 0.184215 -2.639868 -1.866806 0.103087 -3.662073 -1.314022 -0.171425 -2.465690 -0.312452 -1.833248 0.841146 -0.621605 -3.541929 1.072220 -1.061943 -3.043297 -0.158347 3.761954 -5.673538 0.794106 0.436173 0.625586 -0.241529 1.902953 -0.458702 1.721220 -0.497866 -2.565534 0.091581 -3.113640 -0.099052 1.273026 2.054411 -1.035518 -0.553632 -0.128776 -0.993458 -1.202182 -2.572103 -0.244428 8.632767 8.440441 0.474222 -2.364838 -22.068910 -4.825881 0.574795 -3.010127 1.070016 -9.213734 16.431615 9.275132 0.824647 -13.548579 9.634175 21.301294 -2.901376 -11.771297 -35.798046 -3.088751 -0.379559 -1.336186 
73.600700 0.000000 -17.977322 -0.000000 0.000000 -0.000000 2.324607 2.447737 4.429292 0.148044 0.039132 0.196389 -1.306425 0.101593 -2.454268 -1.911056 -0.065339 -3.379174 -1.335443 -0.271176 -2.264353 0.300310 -1.596743 0.664752 0.504095 -2.966300 1.052983 -1.559718 -1.222673 -1.129680 4.631464 -7.160464 0.484338 1.264920 1.798443 -0.709415 1.765340 -0.609502 1.754370 0.174312 -1.437698 0.607285 -1.873533 -0.558693 0.759788 -1.062453 0.525617 0.299675 -0.589461 -0.823885 -1.406112 -1.297843 2.431042 13.783953 9.769535 0.516897 -2.742129 -26.004555 -5.080779 1.980928 6.710801 -1.383177 -17.188620 16.649814 8.645080 -2.229507 -14.767605 10.164069 23.088008 -3.018887 -11.604064 -39.632333 -3.874355 -0.400217 1.492658 
79.272194 0.000000 -21.101021 -0.000000 0.000000 -0.000000 2.077357 1.433051 3.309388 0.147869 0.039275 0.196114 -1.271555 0.234689 -2.051582 -1.853601 0.155626 -2.833566 -1.294653 -0.089559 -1.908108 0.695977 -1.206501 0.505013 1.203701 -2.155769 1.004161 -1.831593 0.170068 -1.768097 4.529215 -7.464663 0.000864 1.622428 2.297931 -0.914770 1.441401 -0.833563 1.328910 0.578189 -0.711053 0.891614 -0.604828 -0.830885 -0.055695 -3.708239 1.803477 1.084190 -1.152038 -0.702046 -1.774065 -1.109827 5.793379 16.393450 8.793343 0.486399 -2.464921 -23.694565 -2.229959 -3.771770 11.671255 -2.552224 -13.824332 16.151249 8.649618 -5.753702 -15.374344 10.411032 23.972583 -2.657827 -11.128345 -38.162623 -4.794657 -0.639308 1.601315 
90.700691 0.000000 -27.044125 -0.000000 0.000000 -0.000000 1.601146 -0.861591 1.128295 0.136731 0.035904 0.181401 -0.801867 0.623340 -0.987256 -1.181284 0.801117 -1.409676 -0.834195 0.442484 -0.987141 0.593434 -0.174179 0.497212 0.846276 -0.312416 1.159632 -0.794344 0.641531 -0.945955 1.591711 -2.781940 0.447462 0.535105 0.766692 -0.296793 -0.252586 -0.779544 -0.692207 0.792156 0.071133 0.920598 0.324314 -0.386864 -1.286999 -4.203984 2.037812 1.237126 -1.311312 -0.325532 -1.507046 1.049214 2.547073 9.390735 1.020407 0.075863 -0.282154 -5.327869 0.946313 -7.430471 1.050329 -0.189087 -2.536735 10.494326 10.297794 -7.746702 -7.899761 6.537989 12.812755 -2.177831 -5.028208 -18.447047 0.325665 0.450132 0.861937 
95.977791 0.000000 -28.895727 -0.000000 0.000000 -0.000000 0.842455 -0.868950 0.273467 0.125046 0.032769 0.165891 -0.376958 0.405901 -0.438259 -0.562015 0.561759 -0.644893 -0.399326 0.335144 -0.461772 0.272181 0.066999 0.367699 0.306924 0.088601 0.825302 -0.210868 0.408503 -0.327244 0.399023 -0.537656 0.742232 0.037363 0.053833 -0.020573 -0.601120 -0.356163 -0.897647 0.549153 0.240973 0.579966 0.094336 -0.039275 -1.019017 -2.269340 1.114128 0.650851 -0.650136 -0.020734 -0.646324 1.179030 -0.094575 4.131465 -0.649552 -0.050919 0.178942 -0.157296 0.042056 -2.143675 -2.204289 -0.048402 -2.148908 5.074253 7.105585 -4.166217 -2.620700 2.512616 4.421204 -2.215998 -1.659761 -6.557681 2.179154 0.565285 0.416246 
95.977791 0.000000 -28.895727 -0.000000 0.000000 -0.000000 0.842455 -0.868950 0.273467 0.125046 0.032769 0.165891 -0.376958 0.405901 -0.438259 -0.562015 0.561759 -0.644893 -0.399326 0.335144 -0.461772 0.272181 0.066999 0.367699 0.306924 0.088601 0.825302 -0.210868 0.408503 -0.327244 0.399023 -0.537656 0.742232 0.037363 0.053833 -0.020573 -0.601120 -0.356163 -0.897647 0.549153 0.240973 0.579966 0.094336 -0.039275 -1.019017 -2.269340 1.114128 0.650851 -0.650136 -0.020734 -0.646324 1.179030 -0.094575 4.131465 -0.649552 -0.050919 0.178942 -0.157296 0.042056 -2.143675 -2.204289 -0.048402 -2.148908 5.074253 7.105585 -4.166217 -2.620700 2.512616 4.421204 -2.215998 -1.659761 -6.557681 2.179154 0.565285 0.416246 
95.977791 0.000000 -28.895727 -0.000000 0.000000 -0.000000 0.842455 -0.868950 0.273467 0.125046 0.032769 0.165891 -0.376958 0.405901 -0.438259 -0.562015 0.561759 -0.644893 -0.399326 0.335144 -0.461772 0.272181 0.066999 0.367699 0.306924 0.088601 0.825302 -0.210868 0.408503 -0.327244 0.399023 -0.537656 0.742232 0.037363 0.053833 -0.020573 -0.601120 -0.356163 -0.897647 0.549153 0.240973 0.579966 0.094336 -0.039275 -1.019017 -2.269340 1.114128 0.650851 -0.650136 -0.020734 -0.646324 1.179030 -0.094575 4.131465 -0.649552 -0.050919 0.178942 -0.157296 0.042056 -2.143675 -2.204289 -0.048402 -2.148908 5.074253 7.105585 -4.166217 -2.620700 2.512616 4.421204 -2.215998 -1.659761 -6.557681 2.179154 0.565285 0.416246 
95.977791 0.000000 -28.895727 -0.000000 0.000000 -0.000000 0.842455 -0.868950 0.273467 0.125046 0.032769 0.165891 -0.376958 0.405901 -0.438259 -0.562015 0.561759 -0.644893 -0.399326 0.335144 -0.461772 0.272181 0.066999 0.367699 0.306924 0.088601 0.825302 -0.210868 0.408503 -0.327244 0.399023 -0.537656 0.742232 0.037363 0.053833 -0.020573 -0.601120 -0.356163 -0.897647 0.549153 0.240973 0.579966 0.094336 -0.039275 -1.019017 -2.269340 1.114128 0.650851 -0.650136 -0.020734 -0.646324 1.179030 -0.094575 4.131465 -0.649552 -0.050919 0.178942 -0.157296 0.042056 -2.143675 -2.204289 -0.048402 -2.148908 5.074253 7.105585 -4.166217 -2.620700 2.512616 4.421204 -2.215998 -1.659761 -6.557681 2.179154 0.565285 0.416246 
95.977791 0.000000 -28.895727 -0.000000 0.000000 -0.000000 0.842455 -0.868950 0.273467 0.125046 0.032769 0.165891 -0.376958 0.405901 -0.438259 -0.562015 0.561759 -0.644893 -0.399326 0.335144 -0.461772 0.272181 0.066999 0.367699 0.306924 0.088601 0.825302 -0.210868 0.408503 -0.327244 0.399023 -0.537656 0.742232 0.037363 0.053833 -0.020573 -0.601120 -0.356163 -0.897647 0.549153 0.240973 0.579966 0.094336 -0.039275 -1.019017 -2.269340 1.114128 0.650851 -0.650136 -0.020734 -0.646324 1.179030 -0.094575 4.131465 -0.649552 -0.050919 0.178942 -0.157296 0.042056 -2.143675 -2.204289 -0.048402 -2.148908 5.074253 7.105585 -4.166217 -2.620700 2.512616 4.421204 -2.215998 -1.659761 -6.557681 2.179154 0.565285 0.416246 
